<svg width="282" height="263" viewBox="0 0 282 263" fill="none" xmlns="http://www.w3.org/2000/svg">
<rect width="282" height="263" fill="#E5E5E5"/>
<g id="Group">
<g id="Vector">
<path id="Vector_2" d="M126.771 0C61.939 4.6242e-06 65.9876 28.1152 65.9876 28.1152L66.0599 57.2422H127.928V65.9876H41.4862C41.4862 65.9876 0 61.2827 0 126.699C-4.624e-06 192.115 36.2101 189.796 36.2101 189.796H57.8204V159.44C57.8204 159.44 56.6556 123.23 93.4523 123.23H154.814C154.814 123.23 189.29 123.787 189.29 89.9108V33.8972C189.29 33.8972 194.524 0 126.771 0ZM92.6572 19.5867C98.8126 19.5867 103.788 24.5617 103.788 30.7171C103.788 36.8725 98.8126 41.8475 92.6572 41.8475C86.5018 41.8475 81.5268 36.8725 81.5268 30.7171C81.5268 24.5617 86.5018 19.5867 92.6572 19.5867Z" fill="url(#paint0_linear)"/>
</g>
<g id="Vector_3" filter="url(#filter0_d)">
<path id="Vector_4" d="M150.996 254.054C215.828 254.054 211.779 225.939 211.779 225.939L211.707 196.812H149.839V188.066H236.281C236.281 188.066 277.767 192.771 277.767 127.355C277.767 61.9386 241.557 64.2584 241.557 64.2584H219.946V94.6141C219.946 94.6141 221.111 130.824 184.315 130.824H122.953C122.953 130.824 88.4772 130.267 88.4772 164.143V220.157C88.4772 220.157 83.2428 254.054 150.996 254.054ZM185.11 234.467C178.954 234.467 173.979 229.492 173.979 223.337C173.979 217.181 178.954 212.206 185.11 212.206C191.265 212.206 196.24 217.181 196.24 223.337C196.24 229.492 191.265 234.467 185.11 234.467Z" fill="url(#paint1_linear)"/>
</g>
</g>
<defs>
<filter id="filter0_d" x="84.3834" y="64.2482" width="197.383" height="197.806" filterUnits="userSpaceOnUse" color-interpolation-filters="sRGB">
<feFlood flood-opacity="0" result="BackgroundImageFix"/>
<feColorMatrix in="SourceAlpha" type="matrix" values="0 0 0 0 0 0 0 0 0 0 0 0 0 0 0 0 0 0 127 0"/>
<feOffset dy="4"/>
<feGaussianBlur stdDeviation="2"/>
<feColorMatrix type="matrix" values="0 0 0 0 0 0 0 0 0 0 0 0 0 0 0 0 0 0 0.25 0"/>
<feBlend mode="normal" in2="BackgroundImageFix" result="effect1_dropShadow"/>
<feBlend mode="normal" in="SourceGraphic" in2="effect1_dropShadow" result="shape"/>
</filter>
<linearGradient id="paint0_linear" x1="24.5429" y1="22.8515" x2="151.102" y2="148.148" gradientUnits="userSpaceOnUse">
<stop stop-color="#387EB8"/>
<stop offset="1" stop-color="#366994"/>
</linearGradient>
<linearGradient id="paint1_linear" x1="124.608" y1="103.309" x2="260.519" y2="231.789" gradientUnits="userSpaceOnUse">
<stop stop-color="#FFE052"/>
<stop offset="1" stop-color="#FFC331"/>
</linearGradient>
</defs>
</svg>
